<?xml version="1.0" encoding="iso-8859-1"?>
<!-- Generator: Adobe Illustrator 19.0.0, SVG Export Plug-In . SVG Version: 6.00 Build 0)  -->
<svg version="1.1" id="Capa_1" xmlns="http://www.w3.org/2000/svg" xmlns:xlink="http://www.w3.org/1999/xlink" x="0px" y="0px"
	 viewBox="0 0 60 60" style="enable-background:new 0 0 60 60;" xml:space="preserve">
   <g class="logos">

     <path id="briefcase" d="M56.99,13.5H55v-3H45v3h-4V7.706C41,5.938,39.562,4.5,37.794,4.5H22.206C20.438,4.5,19,5.938,19,7.706V13.5h-4v-3H5v3H3.01
     	C1.351,13.5,0,14.851,0,16.51v35.98c0,1.659,1.351,3.01,3.01,3.01H8h2h40h2h1h3.99c1.659,0,3.01-1.351,3.01-3.01V16.51
     	C60,14.851,58.649,13.5,56.99,13.5z M21,7.706C21,7.041,21.541,6.5,22.206,6.5h15.588C38.459,6.5,39,7.041,39,7.706V13.5H21V7.706z
   	  M8,53.5v-38h2v38H8z M50,53.5v-38h2v38H50z"/>

     <path id="bullhorn" d="M26.722,0.88c-0.466-0.269-1.034-0.269-1.5,0L16.26,6.054H3.5C1.569,6.054,0,7.546,0,9.38v5.361
    		c0,1.834,1.569,3.326,3.5,3.326h0.328l4.986,8.728l4.342-2.479l-3.568-6.246H17c0.056,0,0.111-0.001,0.168-0.004l8.055,4.648
    		c0.232,0.135,0.49,0.2,0.75,0.2s0.518-0.065,0.75-0.2c0.465-0.269,0.75-0.764,0.75-1.3V2.18C27.472,1.643,27.186,1.148,26.722,0.88
    		z M24.472,18.816l-6.246-3.605c-0.229-0.133-0.487-0.2-0.75-0.2c-0.112,0-0.226,0.013-0.335,0.037
    		c-0.061,0.015-0.107,0.021-0.143,0.021h-4.014V9.054h3.678c0.264,0,0.521-0.069,0.75-0.201l7.06-4.076V18.816z"/>

      <g id="email">
        <path style="fill:#030104;" d="M7,9L5.268,7.484l-4.952,4.245C0.496,11.896,0.739,12,1.007,12h11.986
          c0.267,0,0.509-0.104,0.688-0.271L8.732,7.484L7,9z"/>
        <path style="fill:#030104;" d="M13.684,2.271C13.504,2.103,13.262,2,12.993,2H1.007C0.74,2,0.498,2.104,0.318,2.273L7,8
          L13.684,2.271z"/>
        <polygon style="fill:#030104;" points="0,2.878 0,11.186 4.833,7.079 		"/>
        <polygon style="fill:#030104;" points="9.167,7.079 14,11.186 14,2.875 		"/>
      </g>

      <path id="github-logo" d="M409.132,114.573c-19.608-33.596-46.205-60.194-79.798-79.8C295.736,15.166,259.057,5.365,219.271,5.365
        c-39.781,0-76.472,9.804-110.063,29.408c-33.596,19.605-60.192,46.204-79.8,79.8C9.803,148.168,0,184.854,0,224.63
        c0,47.78,13.94,90.745,41.827,128.906c27.884,38.164,63.906,64.572,108.063,79.227c5.14,0.954,8.945,0.283,11.419-1.996
        c2.475-2.282,3.711-5.14,3.711-8.562c0-0.571-0.049-5.708-0.144-15.417c-0.098-9.709-0.144-18.179-0.144-25.406l-6.567,1.136
        c-4.187,0.767-9.469,1.092-15.846,1c-6.374-0.089-12.991-0.757-19.842-1.999c-6.854-1.231-13.229-4.086-19.13-8.559
        c-5.898-4.473-10.085-10.328-12.56-17.556l-2.855-6.57c-1.903-4.374-4.899-9.233-8.992-14.559
        c-4.093-5.331-8.232-8.945-12.419-10.848l-1.999-1.431c-1.332-0.951-2.568-2.098-3.711-3.429c-1.142-1.331-1.997-2.663-2.568-3.997
        c-0.572-1.335-0.098-2.43,1.427-3.289c1.525-0.859,4.281-1.276,8.28-1.276l5.708,0.853c3.807,0.763,8.516,3.042,14.133,6.851
        c5.614,3.806,10.229,8.754,13.846,14.842c4.38,7.806,9.657,13.754,15.846,17.847c6.184,4.093,12.419,6.136,18.699,6.136
        c6.28,0,11.704-0.476,16.274-1.423c4.565-0.952,8.848-2.383,12.847-4.285c1.713-12.758,6.377-22.559,13.988-29.41
        c-10.848-1.14-20.601-2.857-29.264-5.14c-8.658-2.286-17.605-5.996-26.835-11.14c-9.235-5.137-16.896-11.516-22.985-19.126
        c-6.09-7.614-11.088-17.61-14.987-29.979c-3.901-12.374-5.852-26.648-5.852-42.826c0-23.035,7.52-42.637,22.557-58.817
        c-7.044-17.318-6.379-36.732,1.997-58.24c5.52-1.715,13.706-0.428,24.554,3.853c10.85,4.283,18.794,7.952,23.84,10.994
        c5.046,3.041,9.089,5.618,12.135,7.708c17.705-4.947,35.976-7.421,54.818-7.421s37.117,2.474,54.823,7.421l10.849-6.849
        c7.419-4.57,16.18-8.758,26.262-12.565c10.088-3.805,17.802-4.853,23.134-3.138c8.562,21.509,9.325,40.922,2.279,58.24
        c15.036,16.18,22.559,35.787,22.559,58.817c0,16.178-1.958,30.497-5.853,42.966c-3.9,12.471-8.941,22.457-15.125,29.979
        c-6.191,7.521-13.901,13.85-23.131,18.986c-9.232,5.14-18.182,8.85-26.84,11.136c-8.662,2.286-18.415,4.004-29.263,5.146
        c9.894,8.562,14.842,22.077,14.842,40.539v60.237c0,3.422,1.19,6.279,3.572,8.562c2.379,2.279,6.136,2.95,11.276,1.995
        c44.163-14.653,80.185-41.062,108.068-79.226c27.88-38.161,41.825-81.126,41.825-128.906
        C438.536,184.851,428.728,148.168,409.132,114.573z"/>

      <path id="linkedin-logo" d="M430.117,261.543V420.56h-92.188V272.193c0-37.271-13.334-62.707-46.703-62.707
    		c-25.473,0-40.632,17.142-47.301,33.724c-2.432,5.928-3.058,14.179-3.058,22.477V420.56h-92.219c0,0,1.242-251.285,0-277.32h92.21
    		v39.309c-0.187,0.294-0.43,0.611-0.606,0.896h0.606v-0.896c12.251-18.869,34.13-45.824,83.102-45.824
    		C384.633,136.724,430.117,176.361,430.117,261.543z M52.183,9.558C20.635,9.558,0,30.251,0,57.463
    		c0,26.619,20.038,47.94,50.959,47.94h0.616c32.159,0,52.159-21.317,52.159-47.94C103.128,30.251,83.734,9.558,52.183,9.558z
    		M5.477,420.56h92.184v-277.32H5.477V420.56z"/>

      <g id="mortarboard">
    		<polygon points="484.006,189.845 484.006,179.186 241.897,62.561 0,179.083 0,189.946 241.897,306.471 		"/>
    		<path d="M83.808,251.571v69.7l145.836,70.25h24.506l145.435-70.057c0.14-0.307,0.271-0.613,0.402-0.922V251.57l-158.09,76.152
    			L83.808,251.571z"/>
    		<polygon points="458.506,358.195 458.506,222.599 439.359,232.255 439.359,358.195 426.883,396.203 445.742,421.445
    			452.123,421.445 470.981,396.203 		"/>
    	</g>

      <g id="stackoverflow-logo">
        <path d="M140.81,475.111h0.024l189.91-0.269c8.434-0.013,15.3-6.886,15.3-15.318v-21.298c0-8.428-6.854-15.288-15.3-15.288
          l-189.91,0.264c-8.433,0.012-15.3,6.885-15.3,15.318v21.31C125.535,468.257,132.389,475.111,140.81,475.111z"/>
        <path d="M58.667,517.854c0.073,29.26,0.073,29.449,3.072,29.449c0.018,0,0.037,0,0.055,0l10.612,0.294c0.031,0,0.055,0,0.086,0
          c0,0,85.814,0,171.629-0.036c42.914-0.019,85.821-0.05,118-0.092c16.09-0.019,29.505-0.043,38.887-0.074
          c17.803-0.055,17.803-0.055,17.803-3.072l0.3-10.697V333.299c0-8.434-6.866-15.3-15.3-15.3h-11.909c-8.434,0-15.3,6.866-15.3,15.3
          V496.22c0,5.062-4.119,9.18-9.181,9.18H110.51c-5.061,0-9.18-4.118-9.18-9.18V333.299c0-8.434-6.867-15.3-15.3-15.3H73.82
          c-8.433,0-15.3,6.86-15.3,15.3c0,23.342,0.012,76.084,0.055,122.981C58.594,479.727,58.625,501.722,58.667,517.854z"/>
        <path d="M142.322,397.399l189.402,17.467c0.478,0.043,0.948,0.062,1.413,0.062c7.956,0,14.468-5.985,15.159-13.917l1.83-21.096
          c0.729-8.396-5.508-15.851-13.898-16.628l-189.102-17.461c-8.593-0.795-15.869,5.441-16.653,13.825l-1.97,21.108
          c-0.38,4.069,0.844,8.042,3.452,11.181C134.567,395.087,138.252,397.026,142.322,397.399z"/>
        <path d="M437.636,208.849c1.273,7.344,7.607,12.675,15.05,12.675c0.875,0,1.756-0.074,2.644-0.232l21.065-3.678
          c8.311-1.451,13.898-9.395,12.454-17.706L456.345,12.678c-1.42-8.207-9.21-13.917-17.692-12.448l-21.065,3.678
          c-8.311,1.451-13.898,9.395-12.454,17.705L437.636,208.849z"/>
        <path d="M190.333,194.375l163.6,96.708c2.356,1.396,5.049,2.136,7.778,2.136c5.393,0,10.447-2.876,13.183-7.509l10.876-18.36
          c2.08-3.519,2.674-7.631,1.658-11.591c-1.016-3.954-3.513-7.283-7.032-9.358l-163.6-96.714
          c-7.014-4.149-16.836-1.597-20.967,5.374l-10.869,18.36c-2.081,3.519-2.674,7.638-1.658,11.591
          C184.317,188.971,186.82,192.294,190.333,194.375z"/>
        <path d="M387.525,240.501c2.853,4.174,7.57,6.659,12.626,6.659c3.091,0,6.077-0.924,8.635-2.681l17.405-11.934
          c6.953-4.768,8.752-14.314,4.015-21.292L323.29,54.104c-4.584-6.732-14.498-8.623-21.236-3.984L284.317,62.33
          c-6.945,4.779-8.727,14.327-3.971,21.291L387.525,240.501z"/>
        <path d="M154.482,302.319l183.465,49.156c1.298,0.349,2.632,0.526,3.966,0.526c6.903,0,12.98-4.67,14.762-11.347l5.508-20.624
          c2.179-8.152-2.681-16.555-10.826-18.74l-183.465-49.162c-8.017-2.148-16.604,2.852-18.728,10.826l-5.508,20.63
          C141.477,291.726,146.336,300.135,154.482,302.319z"/>
      </g>

      <g id="wrench">
				<path style="fill:#010002;" d="M13.361,409.063c-17.814,17.814-17.814,46.663,0,64.477c8.907,8.907,20.58,13.345,32.254,13.345
					s23.347-4.438,32.254-13.345l149.717-149.748l-64.508-64.447L13.361,409.063z"/>
				<polygon style="fill:#010002;" points="387.548,131.577 452.755,97.863 486.893,31.866 455.065,0.038 389.098,34.207
					355.324,99.353 276.012,178.756 308.175,210.98 				"/>
				<path style="fill:#010002;" d="M401.835,304.641l-6.141-0.608c-11.126,0-21.675,2.28-31.524,5.928l-187.17-187.2
					c3.648-9.849,5.928-20.398,5.928-31.524l-0.608-6.141c-3.222-47.454-42.316-85.058-90.59-85.058
					c-14.045,0-27.208,3.435-39.094,9.12l60.586,60.586c3.192,3.192,5.381,6.961,6.84,10.944c3.982,10.761,1.824,23.347-6.84,32.041
					c-5.928,5.928-13.71,8.907-21.492,8.907c-3.587,0-7.144-0.79-10.549-2.067c-3.982-1.52-7.752-3.648-10.944-6.87L9.652,52.143
					c-5.685,11.886-9.12,25.049-9.12,39.094c0,48.274,37.604,87.368,85.058,90.59l6.141,0.608c11.126,0,21.675-2.28,31.524-5.897
					l187.139,187.17c-3.587,9.849-5.867,20.398-5.867,31.524l0.638,6.141c3.162,47.484,42.286,85.058,90.56,85.058
					c14.045,0,27.238-3.374,39.094-9.12l-60.586-60.586c-3.162-3.162-5.381-6.961-6.901-10.913
					c-3.982-10.761-1.824-23.377,6.901-32.071c5.867-5.928,13.71-8.907,21.492-8.907c3.587,0,7.113,0.76,10.579,2.067
					c3.982,1.49,7.782,3.618,10.913,6.84l60.586,60.586c5.715-11.917,9.12-25.049,9.12-39.094
					C486.893,346.957,449.289,307.863,401.835,304.641z"/>
			</g>
   </g>
 </svg>
